# Blender 4.2.0
# www.blender.org
mtllib room.mtl
o Wall1
v 2.200000 2.000000 -4.400000
v 2.200000 0.000000 -4.400000
v 2.200000 2.000000 1.200000
v 2.200000 0.000000 1.200000
v 2.000000 1.800000 -4.200000
v 2.000000 0.200000 -4.200000
v 2.000000 1.800000 1.000000
v 2.000000 0.200000 1.000000
vn -0.7071 0.7071 -0.0000
vn -0.7071 -0.0000 0.7071
vn -1.0000 -0.0000 -0.0000
vn -0.7071 -0.7071 -0.0000
vn 1.0000 -0.0000 -0.0000
vn -0.7071 -0.0000 -0.7071
s 0
usemtl WallMat
f 5//1 3//1 1//1
f 4//2 7//2 8//2
f 7//3 6//3 8//3
f 2//4 8//4 6//4
f 1//5 4//5 2//5
f 5//6 2//6 6//6
f 5//1 7//1 3//1
f 4//2 3//2 7//2
f 7//3 5//3 6//3
f 2//4 4//4 8//4
f 1//5 3//5 4//5
f 5//6 1//6 2//6
o Wall3
v -2.200000 2.000000 -4.400000
v -2.200000 0.000000 -4.400000
v -2.200000 2.000000 1.200000
v -2.200000 0.000000 1.200000
v -2.000000 1.800000 -4.200000
v -2.000000 0.200000 -4.200000
v -2.000000 1.800000 1.000000
v -2.000000 0.200000 1.000000
vn 0.7071 0.7071 -0.0000
vn 0.7071 -0.0000 0.7071
vn 1.0000 -0.0000 -0.0000
vn 0.7071 -0.7071 -0.0000
vn -1.0000 -0.0000 -0.0000
vn 0.7071 -0.0000 -0.7071
s 0
usemtl WallMat
f 11//7 13//7 9//7
f 16//8 11//8 12//8
f 14//9 15//9 16//9
f 16//10 10//10 14//10
f 12//11 9//11 10//11
f 10//12 13//12 14//12
f 11//7 15//7 13//7
f 16//8 15//8 11//8
f 14//9 13//9 15//9
f 16//10 12//10 10//10
f 12//11 11//11 9//11
f 10//12 9//12 13//12
o Floor
v 2.200000 0.000000 -4.400000
v -2.200000 0.000000 -4.400000
v 2.200000 0.000000 1.200000
v -2.200000 0.000000 1.200000
v 2.000000 0.200000 -4.200000
v -2.000000 0.200000 -4.200000
v 2.000000 0.200000 1.000000
v -2.000000 0.200000 1.000000
vn 0.7071 0.7071 -0.0000
vn -0.0000 0.7071 0.7071
vn -0.0000 1.0000 -0.0000
vn -0.7071 0.7071 -0.0000
vn -0.0000 -1.0000 -0.0000
vn -0.0000 0.7071 -0.7071
s 0
usemtl FloorMat
f 21//13 19//13 17//13
f 20//14 23//14 24//14
f 23//15 22//15 24//15
f 18//16 24//16 22//16
f 17//17 20//17 18//17
f 21//18 18//18 22//18
f 21//13 23//13 19//13
f 20//14 19//14 23//14
f 23//15 21//15 22//15
f 18//16 20//16 24//16
f 17//17 19//17 20//17
f 21//18 17//18 18//18
o Wall2
v 2.200000 2.000000 1.200000
v 2.200000 0.000000 1.200000
v -2.200000 2.000000 1.200000
v -2.200000 0.000000 1.200000
v 2.000000 1.800000 1.000000
v 2.000000 0.200000 1.000000
v -2.000000 1.800000 1.000000
v -2.000000 0.200000 1.000000
vn -0.0000 0.7071 -0.7071
vn -0.7071 -0.0000 -0.7071
vn -0.0000 -0.0000 -1.0000
vn -0.0000 -0.7071 -0.7071
vn -0.0000 -0.0000 1.0000
vn 0.7071 -0.0000 -0.7071
s 0
usemtl WallMat
f 25//19 31//19 27//19
f 28//20 31//20 32//20
f 31//21 30//21 32//21
f 30//22 28//22 32//22
f 25//23 28//23 26//23
f 29//24 26//24 30//24
f 25//19 29//19 31//19
f 28//20 27//20 31//20
f 31//21 29//21 30//21
f 30//22 26//22 28//22
f 25//23 27//23 28//23
f 29//24 25//24 26//24
o Wall4
v -2.200000 2.000000 -4.400000
v -2.200000 0.000000 -4.400000
v 2.200000 2.000000 -4.400001
v 2.200000 0.000000 -4.400001
v -2.000000 1.800000 -4.200000
v -2.000000 0.200000 -4.200000
v 2.000000 1.800000 -4.200001
v 2.000000 0.200000 -4.200001
vn -0.0000 0.7071 0.7071
vn 0.7071 -0.0000 0.7071
vn -0.0000 -0.0000 1.0000
vn -0.0000 -0.7071 0.7071
vn -0.0000 -0.0000 -1.0000
vn -0.7071 -0.0000 0.7071
s 0
usemtl WallMat
f 37//25 35//25 33//25
f 35//26 40//26 36//26
f 39//27 38//27 40//27
f 34//28 40//28 38//28
f 33//29 36//29 34//29
f 37//30 34//30 38//30
f 37//25 39//25 35//25
f 35//26 39//26 40//26
f 39//27 37//27 38//27
f 34//28 36//28 40//28
f 33//29 35//29 36//29
f 37//30 33//30 34//30
o TransWall
v -2.000000 0.200000 -1.000000
v -2.000000 1.800000 -1.000000
v -2.000000 0.200000 -1.200000
v -2.000000 1.800000 -1.200000
v 2.000000 0.200000 -1.000000
v 2.000000 1.800000 -1.000000
v 2.000000 0.200000 -1.200000
v 2.000000 1.800000 -1.200000
v 1.000000 0.200000 -1.200000
v 1.000000 1.800000 -1.200000
v 1.000000 0.200000 -1.000000
v 1.000000 1.800000 -1.000000
v 1.700000 1.800000 -1.200000
v 1.700000 0.200000 -1.000000
v 1.700000 0.200000 -1.200000
v 1.700000 1.800000 -1.000000
v -2.000000 1.500000 -1.000000
v -2.000000 1.500000 -1.200000
v 2.000000 1.500000 -1.200000
v 2.000000 1.500000 -1.000000
v 1.000000 1.500000 -1.000000
v 1.000000 1.500000 -1.200000
v 1.700000 1.500000 -1.000000
v 1.700000 1.500000 -1.200000
vn -1.0000 -0.0000 -0.0000
vn -0.0000 -0.0000 -1.0000
vn 1.0000 -0.0000 -0.0000
vn -0.0000 -0.0000 1.0000
vn -0.0000 -1.0000 -0.0000
vn -0.0000 1.0000 -0.0000
s 0
usemtl TransWallMat
f 42//31 58//31 57//31
f 53//32 59//32 64//32
f 48//33 60//33 59//33
f 52//34 57//34 61//34
f 47//35 54//35 55//35
f 44//36 52//36 50//36
f 50//36 56//36 53//36
f 49//35 41//35 43//35
f 56//34 61//34 63//34
f 44//32 62//32 58//32
f 46//34 63//34 60//34
f 53//36 46//36 48//36
f 64//31 54//31 63//31
f 50//32 64//32 62//32
f 51//33 62//33 61//33
f 60//34 54//34 45//34
f 58//32 49//32 43//32
f 64//35 61//35 62//35
f 61//34 41//34 51//34
f 59//33 45//33 47//33
f 64//32 47//32 55//32
f 57//31 43//31 41//31
f 42//31 44//31 58//31
f 53//32 48//32 59//32
f 48//33 46//33 60//33
f 52//34 42//34 57//34
f 47//35 45//35 54//35
f 44//36 42//36 52//36
f 50//36 52//36 56//36
f 49//35 51//35 41//35
f 56//34 52//34 61//34
f 44//32 50//32 62//32
f 46//34 56//34 63//34
f 53//36 56//36 46//36
f 64//31 55//31 54//31
f 50//32 53//32 64//32
f 51//33 49//33 62//33
f 60//34 63//34 54//34
f 58//32 62//32 49//32
f 64//35 63//35 61//35
f 61//34 57//34 41//34
f 59//33 60//33 45//33
f 64//32 59//32 47//32
f 57//31 58//31 43//31
o Ceiling
v 2.000000 1.800000 -4.200000
v -2.000000 1.800000 -4.200000
v 2.000000 1.800000 1.000000
v -2.000000 1.800000 1.000000
v 2.200000 2.000000 -4.400000
v -2.200000 2.000000 -4.400000
v 2.200000 2.000000 1.200000
v -2.200000 2.000000 1.200000
vn 0.7071 -0.7071 -0.0000
vn -0.0000 -0.7071 0.7071
vn -0.0000 1.0000 -0.0000
vn -0.7071 -0.7071 -0.0000
vn -0.0000 -1.0000 -0.0000
vn -0.0000 -0.7071 -0.7071
s 0
usemtl CellingMat
f 69//37 67//37 65//37
f 67//38 72//38 68//38
f 71//39 70//39 72//39
f 66//40 72//40 70//40
f 65//41 68//41 66//41
f 69//42 66//42 70//42
f 69//37 71//37 67//37
f 67//38 71//38 72//38
f 71//39 69//39 70//39
f 66//40 68//40 72//40
f 65//41 67//41 68//41
f 69//42 65//42 66//42
